<svg width="800" height="800" viewBox="0 0 800 800" fill="none" xmlns="http://www.w3.org/2000/svg">
<path d="M710.848 435.816C698.061 423.029 682.832 414.187 666.667 409.251V266.667C666.667 119.389 547.277 0 400 0C252.723 0 133.333 119.389 133.333 266.667V409.251C117.165 414.187 101.939 423.029 89.152 435.816C47.496 477.475 47.496 545.008 89.152 586.667L133.333 542.485V560C133.333 655.709 183.763 739.624 259.491 786.667H400H540.509C616.237 739.624 666.667 655.709 666.667 560V542.485L710.848 586.667C752.507 545.008 752.507 477.475 710.848 435.816Z" fill="#A3A306"/>
<path d="M710.848 435.816C698.061 423.029 682.832 414.187 666.667 409.251V266.667C666.667 119.389 547.277 0 400 0C400 168 400 581.333 400 786.667H540.509C616.237 739.624 666.667 655.709 666.667 560V542.485L710.848 586.667C752.507 545.008 752.507 477.475 710.848 435.816Z" fill="#CFCF04"/>
<path d="M466.667 133.333C440.544 133.333 416.939 144.077 400 161.373C383.059 144.077 359.456 133.333 333.333 133.333C281.787 133.333 240 175.12 240 226.667V666.667C240 710.283 257.475 749.805 285.779 778.667H514.221C542.525 749.805 560 710.283 560 666.667V226.667C560 175.12 518.213 133.333 466.667 133.333Z" fill="#FCFC92"/>
<path d="M320 266.667C334.728 266.667 346.667 254.728 346.667 240C346.667 225.272 334.728 213.333 320 213.333C305.272 213.333 293.333 225.272 293.333 240C293.333 254.728 305.272 266.667 320 266.667Z" fill="#CFCF04"/>
<path d="M480 266.667C494.728 266.667 506.667 254.728 506.667 240C506.667 225.272 494.728 213.333 480 213.333C465.273 213.333 453.333 225.272 453.333 240C453.333 254.728 465.273 266.667 480 266.667Z" fill="#CFCF04"/>
<path d="M400 293.333L320 346.667L400 426.667L480 346.667L400 293.333Z" fill="#6E6E00"/>
<path d="M400 293.333L480 346.667L400 426.667V293.333Z" fill="#B0B007"/>
<path d="M493.333 693.333C453.163 693.333 418.192 715.549 400 748.357C381.808 715.549 346.837 693.333 306.667 693.333C247.757 693.333 200 741.091 200 800H400H600C600 741.091 552.245 693.333 493.333 693.333Z" fill="#6E6E00"/>
<path d="M400 748.357C418.192 715.549 453.163 693.333 493.333 693.333C552.245 693.333 600 741.091 600 800H400C400 800 400 777.779 400 748.357Z" fill="#B0B007"/>
</svg>
